<svg viewBox="418.9219 250 491.6746 212.7313" width="5000" height="2163.3342458609823" xmlns="http://www.w3.org/2000/svg" xmlns:xlink="http://www.w3.org/1999/xlink" preserveAspectRatio="none"><defs></defs><style>.aD6z1nYkhcolor {fill:#000000;fill-opacity:1;}.aD6z1nYkhstrokeColor-str {stroke:#3F3F3F;stroke-opacity:1;}.asLx0z-Cby0filter-floo {flood-color:#616161;flood-opacity:0.5;}.aTjwGACJh4color {fill:#000000;fill-opacity:1;}.aTjwGACJh4strokeColor-str {stroke:#3F3F3F;stroke-opacity:1;}</style><defs>
      <filter
        x="586"
        y="250"
        width="161.9982"
        height="161.9982"
        id="sLx0z-Cby"
        filterUnits="userSpaceOnUse"
        primitiveUnits="userSpaceOnUse"
        color-interpolation-filters="sRGB">
        <feMerge><feMergeNode in="SourceGraphic" /></feMerge>
      </filter></defs><g opacity="1" transform="rotate(0 418.9219 421.2313)">
<svg width="491.6746" height="33" x="418.9219" y="421.2313" version="1.1" preserveAspectRatio="none" viewBox="1.56 -28.48 431.48 28.96">
  <g transform="matrix(1 0 0 1 0 0)" class="aD6z1nYkhcolor"><defs><path id="id-D6z1nYkh18" d="M16.72 0.48Q12.44 0.48 8.98-1.38Q5.52-3.24 3.54-6.54Q1.56-9.84 1.56-14L1.56-14Q1.56-18.16 3.54-21.46Q5.52-24.76 8.98-26.62Q12.44-28.48 16.76-28.48L16.76-28.48Q20.40-28.48 23.34-27.20Q26.28-25.92 28.28-23.52L28.28-23.52L24.12-19.68Q21.28-22.96 17.08-22.96L17.08-22.96Q14.48-22.96 12.44-21.82Q10.40-20.68 9.26-18.64Q8.12-16.60 8.12-14L8.12-14Q8.12-11.40 9.26-9.36Q10.40-7.32 12.44-6.18Q14.48-5.04 17.08-5.04L17.08-5.04Q21.28-5.04 24.12-8.36L24.12-8.36L28.28-4.52Q26.28-2.08 23.32-0.80Q20.36 0.48 16.72 0.48L16.72 0.48Z M57.44 0L50.48 0L45.08-7.80L44.76-7.80L39.12-7.80L39.12 0L32.64 0L32.64-28L44.76-28Q48.48-28 51.22-26.76Q53.96-25.52 55.44-23.24Q56.92-20.96 56.92-17.84L56.92-17.84Q56.92-14.72 55.42-12.46Q53.92-10.20 51.16-9L51.16-9L57.44 0ZM50.36-17.84Q50.36-20.20 48.84-21.46Q47.32-22.72 44.40-22.72L44.40-22.72L39.12-22.72L39.12-12.96L44.40-12.96Q47.32-12.96 48.84-14.24Q50.36-15.52 50.36-17.84L50.36-17.84Z M68.48-5.20L83.72-5.20L83.72 0L62.04 0L62.04-28L83.20-28L83.20-22.80L68.48-22.80L68.48-16.72L81.48-16.72L81.48-11.68L68.48-11.68L68.48-5.20Z M109.80 0L107.32-6L94.32-6L91.84 0L85.20 0L97.68-28L104.08-28L116.60 0L109.80 0ZM96.40-10.92L105.28-10.92L100.84-21.64L96.40-10.92Z M123.92 0L123.92-22.72L114.96-22.72L114.96-28L139.36-28L139.36-22.72L130.40-22.72L130.40 0L123.92 0Z M149.28-5.20L164.52-5.20L164.52 0L142.84 0L142.84-28L164.00-28L164.00-22.80L149.28-22.80L149.28-16.72L162.28-16.72L162.28-11.68L149.28-11.68L149.28-5.20Z M169.68 0L169.68-28L182.40-28Q186.96-28 190.46-26.26Q193.96-24.52 195.90-21.36Q197.84-18.20 197.84-14L197.84-14Q197.84-9.80 195.90-6.64Q193.96-3.48 190.46-1.74Q186.96 0 182.40 0L182.40 0L169.68 0ZM176.16-5.32L182.08-5.32Q186.28-5.32 188.78-7.66Q191.28-10 191.28-14L191.28-14Q191.28-18 188.78-20.34Q186.28-22.68 182.08-22.68L182.08-22.68L176.16-22.68L176.16-5.32Z M268.56-14.56Q270.96-13.80 272.32-12.02Q273.68-10.24 273.68-7.64L273.68-7.64Q273.68-3.96 270.82-1.98Q267.96 0 262.48 0L262.48 0L248.00 0L248.00-28L261.68-28Q266.80-28 269.54-26.04Q272.28-24.08 272.28-20.72L272.28-20.72Q272.28-18.68 271.30-17.08Q270.32-15.48 268.56-14.56L268.56-14.56ZM260.88-23.12L254.44-23.12L254.44-16.52L260.88-16.52Q263.28-16.52 264.52-17.36Q265.76-18.20 265.76-19.84L265.76-19.84Q265.76-21.48 264.52-22.30Q263.28-23.12 260.88-23.12L260.88-23.12ZM262.00-4.88Q264.56-4.88 265.86-5.72Q267.16-6.56 267.16-8.32L267.16-8.32Q267.16-11.80 262.00-11.80L262.00-11.80L254.44-11.80L254.44-4.88L262.00-4.88Z M285.04-5.20L300.28-5.20L300.28 0L278.60 0L278.60-28L299.76-28L299.76-22.80L285.04-22.80L285.04-16.72L298.04-16.72L298.04-11.68L285.04-11.68L285.04-5.20Z M324.72-28L331.12-28L331.12 0L325.80 0L311.84-17L311.84 0L305.44 0L305.44-28L310.80-28L324.72-11L324.72-28Z M337.76 0L337.76-28L344.24-28L344.24-5.28L358.28-5.28L358.28 0L337.76 0Z M361.92 0L361.92-28L368.40-28L368.40 0L361.92 0Z M394.32-28L400.72-28L400.72 0L395.40 0L381.44-17L381.44 0L375.04 0L375.04-28L380.40-28L394.32-11L394.32-28Z M426.64-28L433.04-28L433.04 0L427.72 0L413.76-17L413.76 0L407.36 0L407.36-28L412.72-28L426.64-11L426.64-28Z"/></defs>
  <clipPath id="id-D6z1nYkh18-clip"><use xlink:href="#id-D6z1nYkh18" /></clipPath>
  <g clip-path="url(#id-D6z1nYkh18-clip)"><use xlink:href="#id-D6z1nYkh18" class="aD6z1nYkhstrokeColor-str" style="stroke-width:2;"/></g>
  </g>
</svg>
</g><g opacity="1" transform="rotate(0 586 250)">
<svg width="161.9982" height="161.9982" x="586" y="250" version="1.1" preserveAspectRatio="none" viewBox="0 0 100 100">
  <g transform="matrix(1 0 0 1 0 0)" style="fill:#000000;fill-opacity:1;"><g><path d="M16,12.5c0-1.9-1.6-3.5-3.5-3.5S9,10.6,9,12.5s1.6,3.5,3.5,3.5S16,14.4,16,12.5z M10,12.5c0-1.4,1.1-2.5,2.5-2.5   s2.5,1.1,2.5,2.5S13.9,15,12.5,15S10,13.9,10,12.5z"></path><path d="M14,12.5c0-0.8-0.7-1.5-1.5-1.5S11,11.7,11,12.5s0.7,1.5,1.5,1.5S14,13.3,14,12.5z M12,12.5c0-0.3,0.2-0.5,0.5-0.5   s0.5,0.2,0.5,0.5S12.8,13,12.5,13S12,12.8,12,12.5z"></path><path d="M97,0H61c-1.7,0-3,1.3-3,3v28H47V10c0-2.8-2.2-5-5-5H10c-2.8,0-5,2.2-5,5v29c-2.8,0-5,2.2-5,5v51c0,2.8,2.2,5,5,5h32   c2.8,0,5-2.2,5-5h51c3.9,0,7-3.1,7-7c0,0,0,0,0,0c0-0.1,0-0.2-0.1-0.4c0,0,0-0.1-0.1-0.1c0-0.1-0.1-0.1-0.1-0.2   c0,0-0.1-0.1-0.1-0.1c0,0-0.1-0.1-0.1-0.1l-14.1-9.4c0.4-0.5,0.6-1.1,0.6-1.7v-4h11c1.7,0,3-1.3,3-3V3C100,1.3,98.7,0,97,0z M42,74   h39V36H19v3h-3v-3c0-1.7,1.3-3,3-3h62c1.7,0,3,1.3,3,3v40c0,0.6-0.4,1-1,1H42V74z M7,10c0-1.7,1.3-3,3-3h32c1.7,0,3,1.3,3,3v21H19   c-2.8,0-5,2.2-5,5v3H7V10z M40,95c0,1.7-1.3,3-3,3H5c-1.7,0-3-1.3-3-3V44c0-1.7,1.3-3,3-3h32c1.7,0,3,1.3,3,3V95z M37,39H20v-2h60   v36H42V44C42,41.2,39.8,39,37,39z M93,93H42v-4h0.1c0.4,1.7,2,3,3.9,3h8c1.9,0,3.4-1.3,3.9-3h40C97.4,91.3,95.4,93,93,93z M44,88   h12c0,1.1-0.9,2-2,2h-8C44.9,90,44,89.1,44,88z M95.7,87H57H43h-1v-8h41h0.7L95.7,87z M98,69c0,0.6-0.4,1-1,1H86V36   c0-2.8-2.2-5-5-5H60v-6h38V69z M98,23H60V3c0-0.6,0.4-1,1-1h36c0.6,0,1,0.4,1,1V23z"></path><path d="M94,4H64c-1.1,0-2,0.9-2,2s0.9,2,2,2h30c1.1,0,2-0.9,2-2S95.1,4,94,4z M94,7H64c-0.6,0-1-0.4-1-1s0.4-1,1-1h30   c0.6,0,1,0.4,1,1S94.6,7,94,7z"></path><path d="M94,10H64c-1.1,0-2,0.9-2,2s0.9,2,2,2h30c1.1,0,2-0.9,2-2S95.1,10,94,10z M94,13H64c-0.6,0-1-0.4-1-1s0.4-1,1-1h30   c0.6,0,1,0.4,1,1S94.6,13,94,13z"></path><path d="M94,31c1.1,0,2-0.9,2-2c0-1.1-0.9-2-2-2s-2,0.9-2,2C92,30.1,92.9,31,94,31z M94,28c0.6,0,1,0.4,1,1s-0.4,1-1,1s-1-0.4-1-1   S93.4,28,94,28z"></path><path d="M50.9,57.6c0.1,0,0.3,0,0.4-0.1l14.1-14.1c0.2-0.2,0.2-0.5,0-0.7s-0.5-0.2-0.7,0L50.6,56.8c-0.2,0.2-0.2,0.5,0,0.7   C50.7,57.6,50.8,57.6,50.9,57.6z"></path><path d="M50.9,62.5c0.1,0,0.3,0,0.4-0.1l14.1-14.1c0.2-0.2,0.2-0.5,0-0.7s-0.5-0.2-0.7,0L50.6,61.6c-0.2,0.2-0.2,0.5,0,0.7   C50.7,62.5,50.8,62.5,50.9,62.5z"></path><path d="M4,88h34V44H4V88z M5,45h32v42H5V45z"></path><path d="M21,90c-1.7,0-3,1.3-3,3s1.3,3,3,3s3-1.3,3-3S22.7,90,21,90z M21,95c-1.1,0-2-0.9-2-2s0.9-2,2-2s2,0.9,2,2S22.1,95,21,95z"></path><path d="M18.5,43h5c0.3,0,0.5-0.2,0.5-0.5c0-0.3-0.2-0.5-0.5-0.5h-5c-0.3,0-0.5,0.2-0.5,0.5C18,42.8,18.2,43,18.5,43z"></path></g></g>
</svg>
</g><g opacity="1" transform="rotate(0 645.1442 421.2313)">
<svg width="53.1512" height="41.5" x="645.1442" y="421.2313" version="1.1" preserveAspectRatio="none" viewBox="2.88 -29.68 48.36 37.760000000000005">
  <g transform="matrix(1 0 0 1 0 0)" class="aTjwGACJh4color"><defs><path id="id-TjwGACJh42" d="M15.60-21.84Q18.60-21.84 21.06-20.46Q23.52-19.08 24.92-16.58Q26.32-14.08 26.32-10.76L26.32-10.76Q26.32-7.44 24.92-4.94Q23.52-2.44 21.06-1.06Q18.60 0.32 15.60 0.32L15.60 0.32Q11.16 0.32 8.84-2.48L8.84-2.48L8.84 0L2.88 0L2.88-29.68L9.12-29.68L9.12-19.24Q11.48-21.84 15.60-21.84L15.60-21.84ZM14.52-4.80Q16.92-4.80 18.46-6.42Q20-8.04 20-10.76L20-10.76Q20-13.48 18.46-15.10Q16.92-16.72 14.52-16.72L14.52-16.72Q12.12-16.72 10.58-15.10Q9.04-13.48 9.04-10.76L9.04-10.76Q9.04-8.04 10.58-6.42Q12.12-4.80 14.52-4.80L14.52-4.80Z M45.24-21.52L51.24-21.52L41.52 1.32Q40.04 5.04 37.86 6.56Q35.68 8.08 32.60 8.08L32.60 8.08Q30.92 8.08 29.28 7.56Q27.64 7.04 26.60 6.12L26.60 6.12L28.88 1.68Q29.60 2.32 30.54 2.68Q31.48 3.04 32.40 3.04L32.40 3.04Q33.68 3.04 34.48 2.42Q35.28 1.80 35.92 0.36L35.92 0.36L36 0.16L26.68-21.52L33.12-21.52L39.16-6.92L45.24-21.52Z"/></defs>
  <clipPath id="id-TjwGACJh42-clip"><use xlink:href="#id-TjwGACJh42" /></clipPath>
  <g clip-path="url(#id-TjwGACJh42-clip)"><use xlink:href="#id-TjwGACJh42" class="aTjwGACJh4strokeColor-str" style="stroke-width:0.8;"/></g>
  </g>
</svg>
</g></svg>