<?xml version="1.0" encoding="utf-8"?>
<!-- Svg Vector Icons : http://www.onlinewebfonts.com/icon -->
<!DOCTYPE svg PUBLIC "-//W3C//DTD SVG 1.1//EN" "http://www.w3.org/Graphics/SVG/1.1/DTD/svg11.dtd">
<svg version="1.1" xmlns="http://www.w3.org/2000/svg" xmlns:xlink="http://www.w3.org/1999/xlink" x="0px" y="0px" viewBox="0 0 1000 1000" enable-background="new 0 0 1000 1000" xml:space="preserve">
<metadata> Svg Vector Icons : http://www.onlinewebfonts.com/icon </metadata>
<g><path d="M10,10L10,10L10,10z"/><path d="M510,30C244.9,30,30,244.9,30,510s214.9,480,480,480s480-214.9,480-480S775.1,30,510,30z M392.5,708.9h-97.2V396.2h97.2V708.9z M343.3,357.8c-30.7,0-50.6-21.8-50.6-48.7c0-27.5,20.4-48.6,51.8-48.6s50.6,21.1,51.2,48.6C395.8,336.1,375.9,357.8,343.3,357.8z M747.4,708.9h-97.2V535.6c0-40.3-14.1-67.8-49.3-67.8c-26.8,0-42.8,18.6-49.9,36.4c-2.6,6.3-3.2,15.3-3.2,24.3v180.3h-97.3v-213c0-39-1.2-71.7-2.6-99.8h84.4l4.5,43.4h1.9c12.8-20.4,44.2-50.5,96.6-50.5c63.9,0,111.9,42.8,111.9,134.9V708.9L747.4,708.9z"/></g>
</svg>