<svg width="80" height="14" viewBox="0 0 80 14" fill="none" xmlns="http://www.w3.org/2000/svg">
<path d="M5.34473 7.98145H1.92578V6.60156H5.34473C6.00684 6.60156 6.54297 6.49609 6.95312 6.28516C7.36328 6.07422 7.66211 5.78125 7.84961 5.40625C8.04297 5.03125 8.13965 4.60352 8.13965 4.12305C8.13965 3.68359 8.04297 3.27051 7.84961 2.88379C7.66211 2.49707 7.36328 2.18652 6.95312 1.95215C6.54297 1.71191 6.00684 1.5918 5.34473 1.5918H2.32129V13H0.625V0.203125H5.34473C6.31152 0.203125 7.12891 0.370117 7.79688 0.704102C8.46484 1.03809 8.97168 1.50098 9.31738 2.09277C9.66309 2.67871 9.83594 3.34961 9.83594 4.10547C9.83594 4.92578 9.66309 5.62598 9.31738 6.20605C8.97168 6.78613 8.46484 7.22852 7.79688 7.5332C7.12891 7.83203 6.31152 7.98145 5.34473 7.98145ZM13.3604 4.98438V13H11.7344V3.49023H13.3164L13.3604 4.98438ZM16.3311 3.4375L16.3223 4.94922C16.1875 4.91992 16.0586 4.90234 15.9355 4.89648C15.8184 4.88477 15.6836 4.87891 15.5312 4.87891C15.1562 4.87891 14.8252 4.9375 14.5381 5.05469C14.251 5.17188 14.0078 5.33594 13.8086 5.54688C13.6094 5.75781 13.4512 6.00977 13.334 6.30273C13.2227 6.58984 13.1494 6.90625 13.1143 7.25195L12.6572 7.51562C12.6572 6.94141 12.7129 6.40234 12.8242 5.89844C12.9414 5.39453 13.1201 4.94922 13.3604 4.5625C13.6006 4.16992 13.9053 3.86523 14.2744 3.64844C14.6494 3.42578 15.0947 3.31445 15.6104 3.31445C15.7275 3.31445 15.8623 3.3291 16.0146 3.3584C16.167 3.38184 16.2725 3.4082 16.3311 3.4375ZM23.0898 11.374V6.47852C23.0898 6.10352 23.0137 5.77832 22.8613 5.50293C22.7148 5.22168 22.4922 5.00488 22.1934 4.85254C21.8945 4.7002 21.5254 4.62402 21.0859 4.62402C20.6758 4.62402 20.3154 4.69434 20.0049 4.83496C19.7002 4.97559 19.46 5.16016 19.2842 5.38867C19.1143 5.61719 19.0293 5.86328 19.0293 6.12695H17.4033C17.4033 5.78711 17.4912 5.4502 17.667 5.11621C17.8428 4.78223 18.0947 4.48047 18.4229 4.21094C18.7568 3.93555 19.1553 3.71875 19.6182 3.56055C20.0869 3.39648 20.6084 3.31445 21.1826 3.31445C21.874 3.31445 22.4834 3.43164 23.0107 3.66602C23.5439 3.90039 23.96 4.25488 24.2588 4.72949C24.5635 5.19824 24.7158 5.78711 24.7158 6.49609V10.9258C24.7158 11.2422 24.7422 11.5791 24.7949 11.9365C24.8535 12.2939 24.9385 12.6016 25.0498 12.8594V13H23.3535C23.2715 12.8125 23.207 12.5635 23.1602 12.2529C23.1133 11.9365 23.0898 11.6436 23.0898 11.374ZM23.3711 7.23438L23.3887 8.37695H21.7451C21.2822 8.37695 20.8691 8.41504 20.5059 8.49121C20.1426 8.56152 19.8379 8.66992 19.5918 8.81641C19.3457 8.96289 19.1582 9.14746 19.0293 9.37012C18.9004 9.58691 18.8359 9.8418 18.8359 10.1348C18.8359 10.4336 18.9033 10.7061 19.0381 10.9521C19.1729 11.1982 19.375 11.3945 19.6445 11.541C19.9199 11.6816 20.2568 11.752 20.6553 11.752C21.1533 11.752 21.5928 11.6465 21.9736 11.4355C22.3545 11.2246 22.6562 10.9668 22.8789 10.6621C23.1074 10.3574 23.2305 10.0615 23.248 9.77441L23.9424 10.5566C23.9014 10.8027 23.79 11.0752 23.6084 11.374C23.4268 11.6729 23.1836 11.96 22.8789 12.2354C22.5801 12.5049 22.2227 12.7305 21.8066 12.9121C21.3965 13.0879 20.9336 13.1758 20.418 13.1758C19.7734 13.1758 19.208 13.0498 18.7217 12.7979C18.2412 12.5459 17.8662 12.209 17.5967 11.7871C17.333 11.3594 17.2012 10.8818 17.2012 10.3545C17.2012 9.84473 17.3008 9.39648 17.5 9.00977C17.6992 8.61719 17.9863 8.29199 18.3613 8.03418C18.7363 7.77051 19.1875 7.57129 19.7148 7.43652C20.2422 7.30176 20.8311 7.23438 21.4814 7.23438H23.3711ZM31.0791 11.8398C31.4658 11.8398 31.8232 11.7607 32.1514 11.6025C32.4795 11.4443 32.749 11.2275 32.96 10.9521C33.1709 10.6709 33.291 10.3516 33.3203 9.99414H34.8672C34.8379 10.5566 34.6475 11.0811 34.2959 11.5674C33.9502 12.0479 33.4961 12.4375 32.9336 12.7363C32.3711 13.0293 31.7529 13.1758 31.0791 13.1758C30.3643 13.1758 29.7402 13.0498 29.207 12.7979C28.6797 12.5459 28.2402 12.2002 27.8887 11.7607C27.543 11.3213 27.2822 10.8174 27.1064 10.249C26.9365 9.6748 26.8516 9.06836 26.8516 8.42969V8.06055C26.8516 7.42188 26.9365 6.81836 27.1064 6.25C27.2822 5.67578 27.543 5.16895 27.8887 4.72949C28.2402 4.29004 28.6797 3.94434 29.207 3.69238C29.7402 3.44043 30.3643 3.31445 31.0791 3.31445C31.8232 3.31445 32.4736 3.4668 33.0303 3.77148C33.5869 4.07031 34.0234 4.48047 34.3398 5.00195C34.6621 5.51758 34.8379 6.10352 34.8672 6.75977H33.3203C33.291 6.36719 33.1797 6.0127 32.9863 5.69629C32.7988 5.37988 32.541 5.12793 32.2129 4.94043C31.8906 4.74707 31.5127 4.65039 31.0791 4.65039C30.5811 4.65039 30.1621 4.75 29.8223 4.94922C29.4883 5.14258 29.2217 5.40625 29.0225 5.74023C28.8291 6.06836 28.6885 6.43457 28.6006 6.83887C28.5186 7.2373 28.4775 7.64453 28.4775 8.06055V8.42969C28.4775 8.8457 28.5186 9.25586 28.6006 9.66016C28.6826 10.0645 28.8203 10.4307 29.0137 10.7588C29.2129 11.0869 29.4795 11.3506 29.8135 11.5498C30.1533 11.7432 30.5752 11.8398 31.0791 11.8398ZM40.6768 3.49023V4.73828H35.5352V3.49023H40.6768ZM37.2754 1.17871H38.9014V10.6445C38.9014 10.9668 38.9512 11.21 39.0508 11.374C39.1504 11.5381 39.2793 11.6465 39.4375 11.6992C39.5957 11.752 39.7656 11.7783 39.9473 11.7783C40.082 11.7783 40.2227 11.7666 40.3691 11.7432C40.5215 11.7139 40.6357 11.6904 40.7119 11.6729L40.7207 13C40.5918 13.041 40.4219 13.0791 40.2109 13.1143C40.0059 13.1553 39.7568 13.1758 39.4639 13.1758C39.0654 13.1758 38.6992 13.0967 38.3652 12.9385C38.0312 12.7803 37.7646 12.5166 37.5654 12.1475C37.3721 11.7725 37.2754 11.2686 37.2754 10.6357V1.17871ZM44.3506 3.49023V13H42.7158V3.49023H44.3506ZM42.5928 0.967773C42.5928 0.704102 42.6719 0.481445 42.8301 0.299805C42.9941 0.118164 43.2344 0.0273438 43.5508 0.0273438C43.8613 0.0273438 44.0986 0.118164 44.2627 0.299805C44.4326 0.481445 44.5176 0.704102 44.5176 0.967773C44.5176 1.21973 44.4326 1.43652 44.2627 1.61816C44.0986 1.79395 43.8613 1.88184 43.5508 1.88184C43.2344 1.88184 42.9941 1.79395 42.8301 1.61816C42.6719 1.43652 42.5928 1.21973 42.5928 0.967773ZM50.7666 11.8398C51.1533 11.8398 51.5107 11.7607 51.8389 11.6025C52.167 11.4443 52.4365 11.2275 52.6475 10.9521C52.8584 10.6709 52.9785 10.3516 53.0078 9.99414H54.5547C54.5254 10.5566 54.335 11.0811 53.9834 11.5674C53.6377 12.0479 53.1836 12.4375 52.6211 12.7363C52.0586 13.0293 51.4404 13.1758 50.7666 13.1758C50.0518 13.1758 49.4277 13.0498 48.8945 12.7979C48.3672 12.5459 47.9277 12.2002 47.5762 11.7607C47.2305 11.3213 46.9697 10.8174 46.7939 10.249C46.624 9.6748 46.5391 9.06836 46.5391 8.42969V8.06055C46.5391 7.42188 46.624 6.81836 46.7939 6.25C46.9697 5.67578 47.2305 5.16895 47.5762 4.72949C47.9277 4.29004 48.3672 3.94434 48.8945 3.69238C49.4277 3.44043 50.0518 3.31445 50.7666 3.31445C51.5107 3.31445 52.1611 3.4668 52.7178 3.77148C53.2744 4.07031 53.7109 4.48047 54.0273 5.00195C54.3496 5.51758 54.5254 6.10352 54.5547 6.75977H53.0078C52.9785 6.36719 52.8672 6.0127 52.6738 5.69629C52.4863 5.37988 52.2285 5.12793 51.9004 4.94043C51.5781 4.74707 51.2002 4.65039 50.7666 4.65039C50.2686 4.65039 49.8496 4.75 49.5098 4.94922C49.1758 5.14258 48.9092 5.40625 48.71 5.74023C48.5166 6.06836 48.376 6.43457 48.2881 6.83887C48.2061 7.2373 48.165 7.64453 48.165 8.06055V8.42969C48.165 8.8457 48.2061 9.25586 48.2881 9.66016C48.3701 10.0645 48.5078 10.4307 48.7012 10.7588C48.9004 11.0869 49.167 11.3506 49.501 11.5498C49.8408 11.7432 50.2627 11.8398 50.7666 11.8398ZM62.2012 10.8027V3.49023H63.8359V13H62.2803L62.2012 10.8027ZM62.5088 8.79883L63.1855 8.78125C63.1855 9.41406 63.1182 10 62.9834 10.5391C62.8545 11.0723 62.6436 11.5352 62.3506 11.9277C62.0576 12.3203 61.6738 12.6279 61.1992 12.8506C60.7246 13.0674 60.1475 13.1758 59.4678 13.1758C59.0049 13.1758 58.5801 13.1084 58.1934 12.9736C57.8125 12.8389 57.4844 12.6309 57.209 12.3496C56.9336 12.0684 56.7197 11.7021 56.5674 11.251C56.4209 10.7998 56.3477 10.2578 56.3477 9.625V3.49023H57.9736V9.64258C57.9736 10.0703 58.0205 10.4248 58.1143 10.7061C58.2139 10.9814 58.3457 11.2012 58.5098 11.3652C58.6797 11.5234 58.8672 11.6348 59.0723 11.6992C59.2832 11.7637 59.5 11.7959 59.7227 11.7959C60.4141 11.7959 60.9619 11.6641 61.3662 11.4004C61.7705 11.1309 62.0605 10.7705 62.2363 10.3193C62.418 9.8623 62.5088 9.35547 62.5088 8.79883ZM67.9316 5.37988V13H66.2969V3.49023H67.8438L67.9316 5.37988ZM67.5977 7.88477L66.8418 7.8584C66.8477 7.20801 66.9326 6.60742 67.0967 6.05664C67.2607 5.5 67.5039 5.0166 67.8262 4.60645C68.1484 4.19629 68.5498 3.87988 69.0303 3.65723C69.5107 3.42871 70.0674 3.31445 70.7002 3.31445C71.1455 3.31445 71.5557 3.37891 71.9307 3.50781C72.3057 3.63086 72.6309 3.82715 72.9062 4.09668C73.1816 4.36621 73.3955 4.71191 73.5479 5.13379C73.7002 5.55566 73.7764 6.06543 73.7764 6.66309V13H72.1504V6.74219C72.1504 6.24414 72.0654 5.8457 71.8955 5.54688C71.7314 5.24805 71.4971 5.03125 71.1924 4.89648C70.8877 4.75586 70.5303 4.68555 70.1201 4.68555C69.6396 4.68555 69.2383 4.77051 68.916 4.94043C68.5938 5.11035 68.3359 5.34473 68.1426 5.64355C67.9492 5.94238 67.8086 6.28516 67.7207 6.67188C67.6387 7.05273 67.5977 7.45703 67.5977 7.88477ZM73.7588 6.98828L72.6689 7.32227C72.6748 6.80078 72.7598 6.2998 72.9238 5.81934C73.0938 5.33887 73.3369 4.91113 73.6533 4.53613C73.9756 4.16113 74.3711 3.86523 74.8398 3.64844C75.3086 3.42578 75.8447 3.31445 76.4482 3.31445C76.958 3.31445 77.4092 3.38184 77.8018 3.5166C78.2002 3.65137 78.5342 3.85938 78.8037 4.14062C79.0791 4.41602 79.2871 4.77051 79.4277 5.2041C79.5684 5.6377 79.6387 6.15332 79.6387 6.75098V13H78.0039V6.7334C78.0039 6.2002 77.9189 5.78711 77.749 5.49414C77.585 5.19531 77.3506 4.9873 77.0459 4.87012C76.7471 4.74707 76.3896 4.68555 75.9736 4.68555C75.6162 4.68555 75.2998 4.74707 75.0244 4.87012C74.749 4.99316 74.5176 5.16309 74.3301 5.37988C74.1426 5.59082 73.999 5.83398 73.8994 6.10938C73.8057 6.38477 73.7588 6.67773 73.7588 6.98828Z" fill="#1A1B22"/>
</svg>
