<svg width="48" height="14" viewBox="0 0 48 14" fill="none" xmlns="http://www.w3.org/2000/svg">
<path d="M10.7734 13H8.55859V7.31348H2.83691V13H0.613281V0.203125H2.83691V5.5293H8.55859V0.203125H10.7734V13ZM12.8037 8.15723C12.8037 7.22559 12.9883 6.3877 13.3574 5.64355C13.7266 4.89355 14.2451 4.31934 14.9131 3.9209C15.5811 3.5166 16.3486 3.31445 17.2158 3.31445C18.499 3.31445 19.5391 3.72754 20.3359 4.55371C21.1387 5.37988 21.5723 6.47559 21.6367 7.84082L21.6455 8.3418C21.6455 9.2793 21.4639 10.1172 21.1006 10.8555C20.7432 11.5938 20.2275 12.165 19.5537 12.5693C18.8857 12.9736 18.1123 13.1758 17.2334 13.1758C15.8916 13.1758 14.8164 12.7305 14.0078 11.8398C13.2051 10.9434 12.8037 9.75098 12.8037 8.2627V8.15723ZM14.9395 8.3418C14.9395 9.32031 15.1416 10.0879 15.5459 10.6445C15.9502 11.1953 16.5127 11.4707 17.2334 11.4707C17.9541 11.4707 18.5137 11.1895 18.9121 10.627C19.3164 10.0645 19.5186 9.24121 19.5186 8.15723C19.5186 7.19629 19.3105 6.43457 18.8945 5.87207C18.4844 5.30957 17.9248 5.02832 17.2158 5.02832C16.5186 5.02832 15.9648 5.30664 15.5547 5.86328C15.1445 6.41406 14.9395 7.24023 14.9395 8.3418ZM25.46 3.49023L25.5215 4.4834C26.1895 3.7041 27.1035 3.31445 28.2637 3.31445C29.5352 3.31445 30.4053 3.80078 30.874 4.77344C31.5654 3.80078 32.5381 3.31445 33.792 3.31445C34.8408 3.31445 35.6201 3.60449 36.1299 4.18457C36.6455 4.76465 36.9092 5.62012 36.9209 6.75098V13H34.7852V6.8125C34.7852 6.20898 34.6533 5.7666 34.3896 5.48535C34.126 5.2041 33.6895 5.06348 33.0801 5.06348C32.5938 5.06348 32.1953 5.19531 31.8848 5.45898C31.5801 5.7168 31.3662 6.05664 31.2432 6.47852L31.252 13H29.1162V6.74219C29.0869 5.62305 28.5156 5.06348 27.4023 5.06348C26.5469 5.06348 25.9404 5.41211 25.583 6.10938V13H23.4473V3.49023H25.46ZM43.3018 13.1758C41.9482 13.1758 40.8496 12.751 40.0059 11.9014C39.168 11.0459 38.749 9.90918 38.749 8.49121V8.22754C38.749 7.27832 38.9307 6.43164 39.2939 5.6875C39.6631 4.9375 40.1787 4.35449 40.8408 3.93848C41.5029 3.52246 42.2412 3.31445 43.0557 3.31445C44.3506 3.31445 45.3496 3.72754 46.0527 4.55371C46.7617 5.37988 47.1162 6.54883 47.1162 8.06055V8.92188H40.9023C40.9668 9.70703 41.2275 10.3281 41.6846 10.7852C42.1475 11.2422 42.7275 11.4707 43.4248 11.4707C44.4033 11.4707 45.2002 11.0752 45.8154 10.2842L46.9668 11.3828C46.5859 11.9512 46.0762 12.3936 45.4375 12.71C44.8047 13.0205 44.0928 13.1758 43.3018 13.1758ZM43.0469 5.02832C42.4609 5.02832 41.9863 5.2334 41.623 5.64355C41.2656 6.05371 41.0371 6.625 40.9375 7.35742H45.0068V7.19922C44.96 6.48438 44.7695 5.94531 44.4355 5.58203C44.1016 5.21289 43.6387 5.02832 43.0469 5.02832Z" fill="white"/>
</svg>
