<svg width="48" height="14" viewBox="0 0 48 14" fill="none" xmlns="http://www.w3.org/2000/svg">
<path d="M9.12109 5.70508V7.08496H2.19531V5.70508H9.12109ZM2.45898 0.203125V13H0.762695V0.203125H2.45898ZM10.5977 0.203125V13H8.91016V0.203125H10.5977ZM12.9355 8.35059V8.14844C12.9355 7.46289 13.0352 6.82715 13.2344 6.24121C13.4336 5.64941 13.7207 5.13672 14.0957 4.70312C14.4707 4.26367 14.9248 3.92383 15.458 3.68359C15.9912 3.4375 16.5889 3.31445 17.251 3.31445C17.9189 3.31445 18.5195 3.4375 19.0527 3.68359C19.5918 3.92383 20.0488 4.26367 20.4238 4.70312C20.8047 5.13672 21.0947 5.64941 21.2939 6.24121C21.4932 6.82715 21.5928 7.46289 21.5928 8.14844V8.35059C21.5928 9.03613 21.4932 9.67188 21.2939 10.2578C21.0947 10.8438 20.8047 11.3564 20.4238 11.7959C20.0488 12.2295 19.5947 12.5693 19.0615 12.8154C18.5342 13.0557 17.9365 13.1758 17.2686 13.1758C16.6006 13.1758 16 13.0557 15.4668 12.8154C14.9336 12.5693 14.4766 12.2295 14.0957 11.7959C13.7207 11.3564 13.4336 10.8438 13.2344 10.2578C13.0352 9.67188 12.9355 9.03613 12.9355 8.35059ZM14.5615 8.14844V8.35059C14.5615 8.8252 14.6172 9.27344 14.7285 9.69531C14.8398 10.1113 15.0068 10.4805 15.2295 10.8027C15.458 11.125 15.7422 11.3799 16.082 11.5674C16.4219 11.749 16.8174 11.8398 17.2686 11.8398C17.7139 11.8398 18.1035 11.749 18.4375 11.5674C18.7773 11.3799 19.0586 11.125 19.2812 10.8027C19.5039 10.4805 19.6709 10.1113 19.7822 9.69531C19.8994 9.27344 19.958 8.8252 19.958 8.35059V8.14844C19.958 7.67969 19.8994 7.2373 19.7822 6.82129C19.6709 6.39941 19.501 6.02734 19.2725 5.70508C19.0498 5.37695 18.7686 5.11914 18.4287 4.93164C18.0947 4.74414 17.7021 4.65039 17.251 4.65039C16.8057 4.65039 16.4131 4.74414 16.0732 4.93164C15.7393 5.11914 15.458 5.37695 15.2295 5.70508C15.0068 6.02734 14.8398 6.39941 14.7285 6.82129C14.6172 7.2373 14.5615 7.67969 14.5615 8.14844ZM25.249 5.37988V13H23.6143V3.49023H25.1611L25.249 5.37988ZM24.915 7.88477L24.1592 7.8584C24.165 7.20801 24.25 6.60742 24.4141 6.05664C24.5781 5.5 24.8213 5.0166 25.1436 4.60645C25.4658 4.19629 25.8672 3.87988 26.3477 3.65723C26.8281 3.42871 27.3848 3.31445 28.0176 3.31445C28.4629 3.31445 28.873 3.37891 29.248 3.50781C29.623 3.63086 29.9482 3.82715 30.2236 4.09668C30.499 4.36621 30.7129 4.71191 30.8652 5.13379C31.0176 5.55566 31.0938 6.06543 31.0938 6.66309V13H29.4678V6.74219C29.4678 6.24414 29.3828 5.8457 29.2129 5.54688C29.0488 5.24805 28.8145 5.03125 28.5098 4.89648C28.2051 4.75586 27.8477 4.68555 27.4375 4.68555C26.957 4.68555 26.5557 4.77051 26.2334 4.94043C25.9111 5.11035 25.6533 5.34473 25.46 5.64355C25.2666 5.94238 25.126 6.28516 25.0381 6.67188C24.9561 7.05273 24.915 7.45703 24.915 7.88477ZM31.0762 6.98828L29.9863 7.32227C29.9922 6.80078 30.0771 6.2998 30.2412 5.81934C30.4111 5.33887 30.6543 4.91113 30.9707 4.53613C31.293 4.16113 31.6885 3.86523 32.1572 3.64844C32.626 3.42578 33.1621 3.31445 33.7656 3.31445C34.2754 3.31445 34.7266 3.38184 35.1191 3.5166C35.5176 3.65137 35.8516 3.85938 36.1211 4.14062C36.3965 4.41602 36.6045 4.77051 36.7451 5.2041C36.8857 5.6377 36.9561 6.15332 36.9561 6.75098V13H35.3213V6.7334C35.3213 6.2002 35.2363 5.78711 35.0664 5.49414C34.9023 5.19531 34.668 4.9873 34.3633 4.87012C34.0645 4.74707 33.707 4.68555 33.291 4.68555C32.9336 4.68555 32.6172 4.74707 32.3418 4.87012C32.0664 4.99316 31.835 5.16309 31.6475 5.37988C31.46 5.59082 31.3164 5.83398 31.2168 6.10938C31.123 6.38477 31.0762 6.67773 31.0762 6.98828ZM43.3633 13.1758C42.7012 13.1758 42.1006 13.0645 41.5615 12.8418C41.0283 12.6133 40.5684 12.2939 40.1816 11.8838C39.8008 11.4736 39.5078 10.9873 39.3027 10.4248C39.0977 9.8623 38.9951 9.24707 38.9951 8.5791V8.20996C38.9951 7.43652 39.1094 6.74805 39.3379 6.14453C39.5664 5.53516 39.877 5.01953 40.2695 4.59766C40.6621 4.17578 41.1074 3.85645 41.6055 3.63965C42.1035 3.42285 42.6191 3.31445 43.1523 3.31445C43.832 3.31445 44.418 3.43164 44.9102 3.66602C45.4082 3.90039 45.8154 4.22852 46.1318 4.65039C46.4482 5.06641 46.6826 5.55859 46.835 6.12695C46.9873 6.68945 47.0635 7.30469 47.0635 7.97266V8.70215H39.9619V7.375H45.4375V7.25195C45.4141 6.83008 45.3262 6.41992 45.1738 6.02148C45.0273 5.62305 44.793 5.29492 44.4707 5.03711C44.1484 4.7793 43.709 4.65039 43.1523 4.65039C42.7832 4.65039 42.4434 4.72949 42.1328 4.8877C41.8223 5.04004 41.5557 5.26855 41.333 5.57324C41.1104 5.87793 40.9375 6.25 40.8145 6.68945C40.6914 7.12891 40.6299 7.63574 40.6299 8.20996V8.5791C40.6299 9.03027 40.6914 9.45508 40.8145 9.85352C40.9434 10.2461 41.1279 10.5918 41.3682 10.8906C41.6143 11.1895 41.9102 11.4238 42.2559 11.5938C42.6074 11.7637 43.0059 11.8486 43.4512 11.8486C44.0254 11.8486 44.5117 11.7314 44.9102 11.4971C45.3086 11.2627 45.6572 10.9492 45.9561 10.5566L46.9404 11.3389C46.7354 11.6494 46.4746 11.9453 46.1582 12.2266C45.8418 12.5078 45.4521 12.7363 44.9893 12.9121C44.5322 13.0879 43.9902 13.1758 43.3633 13.1758Z" fill="#1A1B22"/>
</svg>
