<svg xmlns="http://www.w3.org/2000/svg" xmlns:xlink="http://www.w3.org/1999/xlink" id="svg" version="1.1" viewBox="15.94 154.45 378.72 90.86"><g id="svgg"><path id="path0" d="M17.583 167.472 C 16.457 167.597,15.605 169.492,16.208 170.530 C 16.861 171.654,17.338 171.789,21.083 171.909 C 22.733 171.961,24.421 172.041,24.833 172.085 C 26.001 172.211,27.209 172.360,27.667 172.436 C 27.896 172.474,28.683 172.575,29.417 172.662 C 30.150 172.749,30.938 172.864,31.167 172.918 C 31.396 172.972,31.846 173.051,32.167 173.094 C 32.936 173.196,34.518 173.512,34.833 173.627 C 34.971 173.677,35.269 173.749,35.496 173.786 C 35.723 173.824,35.991 173.923,36.091 174.007 C 36.205 174.101,36.350 174.084,36.471 173.963 C 36.621 173.812,36.667 173.834,36.667 174.053 C 36.667 174.273,36.761 174.316,37.068 174.239 C 37.288 174.184,37.645 174.235,37.859 174.352 C 38.074 174.470,38.438 174.548,38.667 174.526 C 38.960 174.497,39.018 174.530,38.861 174.636 C 38.681 174.758,38.688 174.806,38.901 174.887 C 39.045 174.943,39.145 174.934,39.123 174.869 C 39.079 174.736,39.228 174.665,39.542 174.669 C 39.683 174.671,39.669 174.728,39.500 174.847 C 39.302 174.985,39.325 175.001,39.611 174.921 C 39.810 174.865,40.020 174.898,40.079 174.993 C 40.206 175.199,40.500 175.225,40.500 175.030 C 40.500 174.901,39.775 174.403,33.792 170.415 C 32.440 169.514,31.333 168.725,31.333 168.661 C 31.333 168.598,31.147 168.582,30.919 168.625 C 30.692 168.669,30.373 168.645,30.211 168.573 C 29.944 168.453,29.633 168.412,28.554 168.353 C 28.354 168.342,28.073 168.215,27.929 168.071 C 27.762 167.905,27.667 167.882,27.667 168.008 C 27.667 168.134,27.531 168.166,27.292 168.098 C 27.085 168.038,26.617 167.959,26.250 167.921 C 25.883 167.883,25.171 167.809,24.667 167.757 C 22.328 167.515,21.628 167.469,19.917 167.443 C 18.908 167.429,17.858 167.442,17.583 167.472 M17.050 181.318 C 15.462 182.312,15.727 184.782,17.477 185.307 C 17.832 185.413,18.863 185.503,19.769 185.506 C 21.799 185.513,25.430 185.835,27.417 186.185 C 27.967 186.282,28.979 186.461,29.667 186.583 C 30.354 186.705,31.254 186.894,31.667 187.004 C 32.079 187.113,32.829 187.313,33.333 187.447 C 38.964 188.943,44.691 191.540,49.882 194.950 C 55.010 198.319,59.283 202.274,63.712 207.750 C 64.427 208.633,66.333 211.355,66.333 211.491 C 66.333 211.588,66.400 211.667,66.481 211.667 C 66.562 211.667,66.674 211.798,66.729 211.958 C 66.785 212.119,67.052 212.588,67.322 213.000 C 67.593 213.412,68.084 214.264,68.415 214.891 C 68.746 215.519,69.200 216.324,69.425 216.680 C 69.650 217.036,69.833 217.369,69.833 217.421 C 69.833 217.473,70.105 218.093,70.438 218.799 C 71.287 220.604,71.999 222.370,71.999 222.675 C 72.000 222.817,72.069 223.005,72.153 223.092 C 72.327 223.272,73.239 225.958,73.421 226.828 C 73.488 227.146,73.605 227.521,73.681 227.661 C 73.825 227.927,73.976 228.561,74.495 231.083 C 75.258 234.798,75.491 236.764,75.767 241.833 C 75.881 243.926,75.906 244.019,76.515 244.656 C 77.891 246.096,80.814 244.307,80.269 242.359 C 80.226 242.208,80.144 240.883,80.086 239.417 C 79.997 237.179,79.157 230.555,78.911 230.157 C 78.876 230.101,78.808 229.837,78.759 229.569 C 78.282 226.960,76.637 221.717,75.564 219.385 C 75.346 218.910,75.167 218.443,75.167 218.348 C 75.167 218.253,75.017 217.929,74.834 217.629 C 74.651 217.329,74.501 216.958,74.501 216.806 C 74.500 216.653,74.444 216.503,74.375 216.472 C 74.306 216.442,73.725 215.385,73.083 214.125 C 72.442 212.865,71.860 211.833,71.792 211.833 C 71.723 211.833,71.667 211.757,71.667 211.663 C 71.667 211.569,71.466 211.176,71.221 210.788 C 70.178 209.140,69.574 208.243,69.444 208.148 C 69.368 208.092,69.308 207.979,69.313 207.898 C 69.317 207.817,69.174 207.581,68.994 207.374 C 68.814 207.167,68.667 206.961,68.667 206.915 C 68.667 206.870,68.549 206.702,68.405 206.542 C 68.118 206.221,65.282 202.731,64.750 202.045 C 64.247 201.395,60.349 197.520,59.352 196.678 C 58.871 196.272,58.183 195.672,57.824 195.345 C 56.928 194.529,56.812 194.436,56.246 194.070 C 55.973 193.894,55.600 193.618,55.417 193.457 C 54.798 192.914,54.036 192.333,53.940 192.333 C 53.845 192.333,50.933 190.334,50.545 190.002 C 50.432 189.905,50.294 189.839,50.238 189.854 C 50.182 189.869,49.697 189.602,49.160 189.260 C 48.624 188.918,48.145 188.641,48.096 188.646 C 48.048 188.650,47.548 188.393,46.985 188.075 C 46.423 187.757,45.787 187.453,45.571 187.399 C 45.356 187.345,45.093 187.195,44.986 187.067 C 44.880 186.938,44.702 186.833,44.590 186.833 C 44.479 186.833,43.870 186.582,43.236 186.275 C 42.602 185.967,41.783 185.623,41.417 185.510 C 41.050 185.397,40.514 185.199,40.225 185.069 C 39.936 184.939,39.617 184.833,39.516 184.833 C 39.416 184.833,39.333 184.763,39.333 184.677 C 39.333 184.591,39.202 184.527,39.042 184.534 C 38.881 184.541,38.337 184.395,37.833 184.208 C 36.543 183.732,34.344 183.092,32.583 182.679 C 31.758 182.486,30.896 182.281,30.667 182.224 C 30.438 182.167,30.068 182.097,29.845 182.068 C 29.305 181.999,27.336 181.687,26.917 181.605 C 23.917 181.015,17.816 180.837,17.050 181.318 M17.394 194.915 C 15.885 195.549,15.514 197.309,16.641 198.493 L 17.282 199.167 19.067 199.167 C 20.049 199.167,21.392 199.243,22.051 199.336 C 22.711 199.429,23.850 199.589,24.583 199.692 C 25.317 199.794,26.404 199.986,27.000 200.117 C 27.596 200.249,28.421 200.428,28.833 200.514 C 29.246 200.601,29.883 200.775,30.250 200.901 C 30.617 201.026,31.554 201.336,32.333 201.588 C 33.779 202.055,34.003 202.143,35.750 202.920 C 37.458 203.680,38.580 204.218,38.667 204.319 C 38.713 204.373,39.088 204.595,39.500 204.813 C 40.579 205.384,41.581 206.004,42.429 206.625 C 42.836 206.923,43.225 207.168,43.293 207.169 C 43.361 207.171,43.754 207.470,44.167 207.833 C 44.579 208.197,44.975 208.496,45.046 208.497 C 45.117 208.499,45.439 208.740,45.762 209.033 C 46.084 209.327,46.508 209.683,46.703 209.825 C 47.473 210.384,51.012 214.020,51.999 215.265 C 52.573 215.990,53.092 216.621,53.152 216.667 C 53.212 216.713,53.814 217.568,54.490 218.567 C 56.072 220.907,56.932 222.479,58.332 225.583 C 60.514 230.426,61.955 236.879,61.990 241.967 C 62.008 244.740,63.705 246.112,65.518 244.820 C 66.617 244.038,66.733 239.212,65.759 234.833 C 65.708 234.604,65.554 233.817,65.416 233.083 C 64.853 230.098,63.266 225.393,61.802 222.374 C 61.343 221.428,59.783 218.618,58.612 216.626 C 58.444 216.340,58.066 215.802,57.771 215.429 C 57.476 215.055,57.014 214.421,56.745 214.018 C 55.536 212.211,50.602 207.040,49.102 206.008 C 48.908 205.874,48.675 205.680,48.583 205.575 C 48.044 204.959,44.222 202.325,42.417 201.324 C 41.683 200.917,40.933 200.494,40.750 200.383 C 39.939 199.892,36.819 198.457,35.750 198.084 C 35.292 197.924,34.692 197.696,34.417 197.578 C 34.142 197.459,33.467 197.234,32.917 197.078 C 32.367 196.921,31.823 196.718,31.708 196.626 C 31.594 196.534,31.500 196.496,31.500 196.541 C 31.500 196.586,31.069 196.515,30.542 196.383 C 30.015 196.251,29.164 196.047,28.651 195.931 C 28.139 195.814,27.651 195.678,27.568 195.628 C 27.485 195.579,26.892 195.488,26.250 195.427 C 25.608 195.366,24.942 195.274,24.770 195.223 C 24.396 195.112,24.030 195.072,22.167 194.935 C 19.136 194.713,17.888 194.707,17.394 194.915 M72.090 196.322 C 72.023 196.431,72.091 196.455,72.270 196.386 C 72.488 196.302,72.533 196.341,72.454 196.546 C 72.383 196.730,72.422 196.789,72.577 196.729 C 72.708 196.679,72.849 196.787,72.913 196.988 C 72.973 197.178,73.100 197.333,73.196 197.333 C 73.291 197.333,73.326 197.445,73.274 197.581 C 73.220 197.721,73.263 197.812,73.373 197.790 C 73.554 197.753,73.589 197.826,73.646 198.361 C 73.657 198.468,73.712 198.510,73.768 198.454 C 73.929 198.293,74.848 199.389,74.754 199.632 C 74.708 199.752,74.731 199.813,74.805 199.768 C 74.940 199.684,75.403 200.212,75.358 200.399 C 75.344 200.455,75.465 200.637,75.625 200.805 C 76.303 201.513,76.667 202.018,76.667 202.251 C 76.667 202.388,76.742 202.500,76.833 202.500 C 76.925 202.500,77.000 202.604,77.000 202.732 C 77.000 202.860,77.112 203.008,77.250 203.060 C 77.387 203.113,77.500 203.271,77.500 203.411 C 77.500 203.552,77.561 203.667,77.635 203.667 C 77.709 203.667,77.902 203.967,78.063 204.333 C 78.225 204.700,78.427 205.000,78.512 205.000 C 78.597 205.000,78.667 205.126,78.667 205.281 C 78.667 205.435,78.811 205.717,78.987 205.906 C 79.163 206.095,79.561 206.737,79.872 207.333 C 80.183 207.929,80.639 208.734,80.885 209.122 C 81.132 209.509,81.333 209.887,81.333 209.960 C 81.333 210.084,81.803 211.025,82.642 212.581 C 82.839 212.946,83.000 213.377,83.000 213.539 C 83.000 213.701,83.075 213.833,83.167 213.833 C 83.258 213.833,83.333 213.967,83.333 214.130 C 83.333 214.293,83.435 214.574,83.560 214.755 C 83.684 214.935,84.061 215.833,84.398 216.750 C 84.734 217.667,85.081 218.567,85.168 218.750 C 85.343 219.120,85.616 219.963,86.167 221.833 C 86.369 222.521,86.631 223.383,86.749 223.750 C 86.866 224.117,87.088 224.979,87.242 225.667 C 87.396 226.354,87.629 227.282,87.761 227.727 C 87.892 228.173,88.000 228.749,88.000 229.006 C 88.000 229.263,88.109 229.910,88.242 230.445 C 88.375 230.979,88.519 231.754,88.562 232.167 C 88.605 232.579,88.796 234.227,88.987 235.828 C 89.181 237.464,89.333 239.754,89.333 241.053 C 89.333 244.300,89.801 245.167,91.554 245.167 C 93.563 245.167,93.907 244.436,93.778 240.442 C 93.669 237.082,93.325 233.200,92.977 231.417 C 92.888 230.958,92.704 229.908,92.569 229.083 C 92.434 228.258,92.300 227.508,92.271 227.417 C 92.173 227.103,92.004 226.417,91.922 226.000 C 91.808 225.414,91.232 223.191,91.027 222.539 C 90.849 221.975,90.817 221.865,90.753 221.583 C 90.731 221.492,90.583 220.967,90.422 220.417 C 90.147 219.475,90.012 219.082,89.478 217.667 C 89.357 217.346,89.246 217.008,89.231 216.917 C 89.158 216.468,88.042 213.765,87.326 212.305 C 87.072 211.785,86.896 211.327,86.936 211.287 C 86.975 211.247,86.894 211.119,86.754 211.003 C 86.614 210.887,86.500 210.658,86.500 210.493 C 86.500 210.329,86.444 210.169,86.375 210.139 C 86.306 210.108,86.074 209.708,85.858 209.250 C 85.643 208.792,85.399 208.304,85.316 208.167 C 85.233 208.029,85.113 207.804,85.050 207.667 C 84.987 207.529,84.837 207.317,84.716 207.195 C 84.596 207.073,84.540 206.904,84.592 206.820 C 84.644 206.736,84.618 206.667,84.534 206.667 C 84.386 206.667,83.167 204.813,83.167 204.589 C 83.167 204.528,82.973 204.224,82.736 203.913 C 82.499 203.602,82.353 203.270,82.411 203.176 C 82.474 203.073,82.413 203.044,82.259 203.103 C 82.099 203.164,82.000 203.111,82.000 202.964 C 82.000 202.623,81.497 202.207,79.395 200.813 C 78.375 200.137,76.425 198.833,75.062 197.917 C 72.419 196.139,72.257 196.053,72.090 196.322 M17.035 208.176 C 15.602 209.129,15.654 211.231,17.128 211.978 C 17.590 212.213,18.285 212.321,19.833 212.402 C 31.129 212.989,41.437 219.954,46.001 230.083 C 46.838 231.940,46.950 232.211,47.169 232.917 C 47.282 233.283,47.473 233.883,47.593 234.250 C 47.921 235.256,48.284 236.816,48.410 237.757 C 48.471 238.219,48.558 238.819,48.602 239.090 C 48.647 239.361,48.725 240.483,48.775 241.583 C 48.904 244.372,49.448 245.167,51.229 245.167 C 53.466 245.167,53.869 243.054,52.816 236.836 C 50.686 224.250,41.312 213.500,29.000 209.522 C 24.580 208.094,18.233 207.380,17.035 208.176 M97.000 212.786 C 97.000 212.867,97.090 213.023,97.200 213.133 C 97.356 213.289,97.356 213.333,97.200 213.333 C 97.008 213.333,96.989 213.660,97.171 213.833 C 97.504 214.152,97.807 214.830,97.657 214.923 C 97.540 214.995,97.547 215.106,97.679 215.265 C 97.786 215.394,97.826 215.500,97.767 215.500 C 97.707 215.500,97.761 215.669,97.885 215.875 C 98.009 216.081,98.100 216.362,98.086 216.500 C 98.073 216.637,98.162 216.956,98.285 217.208 C 98.408 217.460,98.473 217.667,98.429 217.667 C 98.386 217.667,98.460 217.930,98.595 218.252 C 98.729 218.573,98.992 219.455,99.179 220.210 C 99.366 220.965,99.540 221.658,99.567 221.750 C 99.628 221.962,99.789 222.633,100.107 224.000 C 100.246 224.596,100.439 225.404,100.536 225.796 C 100.633 226.189,100.726 226.639,100.742 226.796 C 100.771 227.089,100.905 227.830,101.168 229.167 C 101.249 229.579,101.356 230.329,101.405 230.833 C 101.454 231.338,101.566 232.175,101.653 232.694 C 101.740 233.213,101.859 234.375,101.917 235.277 C 101.975 236.179,102.053 237.292,102.089 237.750 C 102.125 238.208,102.205 239.746,102.266 241.167 C 102.391 244.070,102.518 244.479,103.433 244.913 C 105.569 245.927,107.065 244.170,106.764 241.000 C 106.725 240.588,106.643 239.162,106.582 237.833 C 106.520 236.504,106.441 235.192,106.405 234.917 C 106.369 234.642,106.301 234.079,106.253 233.667 C 106.031 231.747,105.832 230.278,105.575 228.667 C 105.421 227.704,105.276 226.767,105.252 226.583 C 105.229 226.400,105.194 226.250,105.175 226.250 C 105.156 226.250,105.115 226.110,105.082 225.938 C 105.050 225.767,104.931 225.242,104.818 224.772 C 104.705 224.301,104.599 223.767,104.584 223.583 C 104.568 223.400,104.428 222.829,104.272 222.315 C 104.117 221.800,103.955 221.219,103.912 221.023 C 103.740 220.243,103.684 220.060,103.425 219.451 C 103.277 219.103,103.200 218.747,103.255 218.659 C 103.309 218.572,103.282 218.500,103.194 218.500 C 103.107 218.500,102.991 218.384,102.936 218.241 C 102.876 218.083,102.906 218.025,103.014 218.092 C 103.137 218.168,103.140 218.107,103.024 217.892 C 102.933 217.722,102.802 217.433,102.735 217.250 C 102.667 217.067,102.596 216.879,102.575 216.833 C 102.555 216.787,102.486 216.600,102.423 216.417 C 102.264 215.959,97.000 212.434,97.000 212.786 M17.381 219.217 C 15.909 219.767,15.505 221.747,16.644 222.831 L 17.289 223.444 19.436 223.629 C 22.089 223.858,24.954 224.575,26.417 225.376 C 26.600 225.476,27.150 225.769,27.638 226.027 C 28.471 226.467,29.479 227.114,29.667 227.330 C 29.712 227.382,30.087 227.681,30.500 227.993 C 31.937 229.082,34.167 231.721,35.013 233.333 C 35.229 233.746,35.487 234.196,35.586 234.333 C 35.780 234.603,36.319 235.959,36.713 237.167 C 37.337 239.079,37.310 238.922,37.593 242.250 C 37.782 244.455,38.358 245.167,39.956 245.167 C 44.015 245.167,42.227 235.029,36.943 228.083 C 35.596 226.314,31.554 222.818,30.333 222.367 C 30.196 222.316,30.046 222.222,30.000 222.158 C 29.656 221.680,25.285 220.044,23.167 219.602 C 20.822 219.112,18.140 218.933,17.381 219.217 M17.750 229.938 C 14.748 230.649,15.728 234.500,18.911 234.500 C 22.876 234.500,26.833 238.711,26.833 242.930 C 26.833 245.332,29.987 246.120,31.087 243.994 C 31.849 242.520,30.330 236.666,28.840 235.333 C 28.789 235.287,28.569 234.987,28.351 234.667 C 27.532 233.459,24.697 231.409,23.000 230.797 C 21.135 230.125,18.667 229.721,17.750 229.938 " stroke="none" fill="#82abef" fill-rule="evenodd"/><path id="path1" d="M16.865 154.916 C 16.573 155.162,16.333 155.469,16.333 155.598 C 16.333 155.728,16.258 155.833,16.167 155.833 C 15.847 155.833,15.979 157.502,16.337 158.006 C 16.887 158.777,17.555 159.011,19.159 158.990 C 24.863 158.917,34.006 160.173,39.917 161.842 C 40.925 162.127,42.050 162.436,42.417 162.530 C 42.783 162.624,43.320 162.805,43.609 162.934 C 43.897 163.062,44.235 163.167,44.359 163.168 C 44.563 163.169,45.852 163.632,48.833 164.775 C 50.050 165.242,50.138 165.279,51.720 165.989 C 52.345 166.270,52.897 166.500,52.946 166.500 C 53.146 166.500,58.695 169.346,60.250 170.246 C 62.391 171.485,66.538 174.164,67.222 174.750 C 67.329 174.842,67.723 175.124,68.097 175.378 C 68.472 175.632,68.937 175.989,69.132 176.170 C 69.327 176.352,69.548 176.500,69.623 176.500 C 69.698 176.500,69.883 176.631,70.035 176.792 C 70.186 176.952,70.409 177.159,70.530 177.252 C 71.069 177.667,72.433 178.765,72.596 178.917 C 72.695 179.008,73.291 179.533,73.922 180.083 C 76.033 181.925,80.316 186.281,82.118 188.418 C 82.504 188.876,82.981 189.438,83.178 189.667 C 83.375 189.896,83.883 190.533,84.306 191.083 C 84.729 191.633,85.136 192.158,85.212 192.250 C 85.409 192.491,87.371 195.218,87.667 195.663 C 87.804 195.869,88.040 196.201,88.191 196.399 C 89.401 197.986,92.356 203.272,94.304 207.333 C 94.457 207.654,94.640 207.942,94.708 207.972 C 94.777 208.003,94.833 208.127,94.833 208.248 C 94.833 208.370,95.070 208.982,95.359 209.609 C 95.648 210.237,95.911 210.888,95.944 211.057 C 95.976 211.226,96.115 211.524,96.251 211.719 C 96.388 211.914,96.500 212.207,96.500 212.370 C 96.500 212.533,96.559 212.667,96.631 212.667 C 96.703 212.667,96.775 212.828,96.789 213.025 C 96.804 213.222,96.906 213.466,97.016 213.567 C 97.164 213.702,97.185 213.696,97.098 213.542 C 97.033 213.426,97.068 213.333,97.177 213.333 C 97.323 213.333,97.319 213.267,97.163 213.079 C 96.610 212.413,97.352 212.785,99.721 214.362 C 101.143 215.309,102.358 216.233,102.422 216.417 C 102.486 216.600,102.555 216.787,102.575 216.833 C 102.770 217.275,102.835 217.483,102.905 217.895 C 102.993 218.420,103.114 218.609,103.264 218.458 C 103.357 218.365,101.945 213.814,101.705 213.430 C 101.643 213.331,101.578 213.150,101.559 213.029 C 101.541 212.907,101.471 212.682,101.404 212.529 C 101.338 212.375,101.264 212.159,101.241 212.049 C 101.217 211.938,101.079 211.608,100.932 211.315 C 100.786 211.022,100.667 210.708,100.667 210.618 C 100.667 210.527,100.526 210.145,100.354 209.768 C 100.182 209.392,99.719 208.333,99.325 207.417 C 98.458 205.399,96.100 200.702,95.125 199.050 C 94.735 198.390,94.163 197.415,93.853 196.884 C 93.061 195.523,90.976 192.428,90.807 192.361 C 90.730 192.331,90.667 192.239,90.667 192.158 C 90.667 192.012,87.441 187.639,86.984 187.166 C 86.851 187.029,86.586 186.713,86.394 186.465 C 85.383 185.155,82.820 182.344,80.815 180.347 C 78.639 178.180,77.366 177.011,75.171 175.167 C 74.680 174.754,74.197 174.339,74.097 174.243 C 73.478 173.648,69.970 171.080,67.793 169.628 C 64.505 167.434,64.701 167.559,63.875 167.133 C 63.485 166.931,63.167 166.707,63.167 166.633 C 63.167 166.560,63.105 166.500,63.029 166.500 C 62.954 166.500,62.110 166.065,61.154 165.534 C 59.089 164.385,53.931 161.833,53.675 161.833 C 53.576 161.833,53.365 161.758,53.206 161.666 C 52.692 161.370,50.642 160.500,50.443 160.494 C 50.337 160.491,49.950 160.344,49.583 160.167 C 49.217 159.990,48.853 159.842,48.775 159.839 C 48.698 159.836,47.798 159.543,46.775 159.187 C 38.602 156.347,29.661 154.738,20.990 154.547 L 17.397 154.468 16.865 154.916 M65.185 154.733 C 64.658 155.025,64.002 156.130,64.001 156.727 C 63.999 157.792,64.544 158.332,67.219 159.916 C 68.611 160.741,70.338 161.810,71.056 162.291 C 71.774 162.773,72.401 163.167,72.448 163.167 C 72.562 163.167,78.726 167.800,79.575 168.523 C 84.307 172.556,88.481 176.649,91.106 179.829 C 91.368 180.147,91.707 180.533,91.858 180.687 C 92.441 181.279,96.000 185.826,96.000 185.978 C 96.000 186.067,96.061 186.164,96.137 186.194 C 96.255 186.243,97.426 187.853,97.919 188.645 C 98.270 189.209,99.084 190.420,99.165 190.500 C 99.212 190.546,99.340 190.733,99.450 190.917 C 100.692 192.991,101.078 193.592,101.195 193.639 C 101.271 193.669,101.333 193.769,101.333 193.860 C 101.333 194.173,102.672 196.278,103.127 196.680 C 104.224 197.649,106.192 197.021,106.679 195.547 C 106.969 194.667,106.766 194.188,104.550 190.524 C 104.348 190.190,104.131 189.816,104.068 189.694 C 103.742 189.061,100.816 184.744,99.609 183.117 C 93.528 174.915,86.735 168.111,78.287 161.760 C 77.322 161.035,73.671 158.500,73.592 158.500 C 73.560 158.500,72.869 158.069,72.055 157.542 C 71.242 157.015,70.428 156.488,70.246 156.372 C 70.065 156.255,69.692 156.048,69.417 155.911 C 69.142 155.774,68.770 155.569,68.590 155.456 C 67.302 154.645,66.952 154.500,66.295 154.506 C 65.904 154.509,65.404 154.611,65.185 154.733 M88.613 154.933 C 87.274 156.174,87.524 157.588,89.360 159.157 C 93.793 162.943,98.738 167.900,102.167 171.992 C 103.729 173.857,106.592 173.775,106.679 171.862 C 106.686 171.709,106.718 171.447,106.750 171.279 C 107.027 169.816,98.787 160.972,91.753 155.183 C 90.685 154.304,89.401 154.202,88.613 154.933 M23.347 167.560 C 23.524 167.711,24.667 167.795,24.667 167.656 C 24.667 167.570,24.354 167.500,23.972 167.500 C 23.590 167.500,23.309 167.527,23.347 167.560 M27.000 168.000 C 27.326 168.211,27.667 168.211,27.667 168.000 C 27.667 167.908,27.460 167.834,27.208 167.836 C 26.851 167.838,26.805 167.874,27.000 168.000 M28.008 168.166 C 28.402 168.389,29.646 168.501,29.756 168.324 C 29.855 168.163,29.788 168.149,28.500 168.068 C 28.005 168.036,27.838 168.070,28.008 168.166 M30.083 168.500 C 30.140 168.592,30.411 168.667,30.686 168.667 C 30.977 168.667,31.143 168.597,31.083 168.500 C 31.027 168.408,30.755 168.333,30.480 168.333 C 30.189 168.333,30.023 168.403,30.083 168.500 M31.333 168.618 C 31.333 168.764,32.022 169.240,38.042 173.252 C 39.394 174.153,40.500 174.952,40.500 175.028 C 40.500 175.229,40.373 175.201,39.912 174.899 C 39.425 174.579,38.238 174.378,38.402 174.643 C 38.462 174.740,38.633 174.772,38.783 174.714 C 38.957 174.647,39.014 174.676,38.941 174.795 C 38.864 174.919,38.976 174.952,39.285 174.896 C 39.536 174.850,39.688 174.868,39.621 174.934 C 39.503 175.052,40.992 175.646,42.500 176.081 C 42.913 176.200,43.550 176.432,43.917 176.597 C 44.283 176.762,44.640 176.910,44.708 176.927 C 44.777 176.944,44.871 176.977,44.917 177.000 C 44.962 177.023,45.056 177.053,45.125 177.067 C 45.194 177.081,45.663 177.288,46.167 177.527 C 46.671 177.766,47.458 178.129,47.917 178.333 C 49.666 179.112,53.066 180.867,54.083 181.516 C 54.450 181.750,54.862 181.995,55.000 182.060 C 55.517 182.307,56.009 182.623,56.332 182.916 C 56.516 183.082,56.668 183.150,56.669 183.067 C 56.671 182.985,56.727 182.998,56.794 183.097 C 56.862 183.197,57.517 183.681,58.250 184.174 C 59.482 185.001,61.485 186.438,61.946 186.825 C 62.053 186.915,62.841 187.571,63.696 188.282 C 64.550 188.994,65.456 189.786,65.708 190.043 C 65.960 190.301,66.167 190.485,66.167 190.452 C 66.167 190.419,66.804 191.022,67.583 191.793 C 68.362 192.563,69.003 193.131,69.006 193.055 C 69.009 192.979,69.103 193.078,69.214 193.276 C 69.500 193.782,71.151 195.500,71.353 195.500 C 71.444 195.500,71.482 195.562,71.435 195.637 C 71.310 195.840,71.896 196.285,72.264 196.266 C 72.440 196.257,73.699 197.000,75.062 197.917 C 76.425 198.833,78.375 200.137,79.395 200.813 C 81.471 202.190,82.000 202.623,82.000 202.946 C 82.000 203.173,82.204 203.241,82.374 203.071 C 82.489 202.955,81.970 202.003,81.792 202.001 C 81.723 202.000,81.667 201.885,81.667 201.745 C 81.667 201.604,81.555 201.447,81.418 201.394 C 81.281 201.341,81.210 201.231,81.262 201.148 C 81.313 201.065,81.238 200.953,81.095 200.898 C 80.952 200.843,80.877 200.731,80.927 200.649 C 80.978 200.567,80.940 200.500,80.843 200.500 C 80.746 200.500,80.667 200.422,80.667 200.327 C 80.667 200.192,79.127 198.007,78.382 197.083 C 78.308 196.992,77.991 196.579,77.678 196.167 C 77.365 195.754,77.028 195.342,76.929 195.250 C 76.831 195.158,76.452 194.708,76.088 194.250 C 72.843 190.167,65.854 183.804,61.168 180.667 C 60.963 180.529,60.623 180.285,60.413 180.125 C 60.203 179.965,59.955 179.833,59.863 179.833 C 59.770 179.833,59.669 179.777,59.639 179.708 C 59.580 179.575,56.870 177.833,56.722 177.833 C 56.674 177.833,56.436 177.695,56.192 177.526 C 55.320 176.919,49.701 174.008,49.376 173.995 C 49.307 173.992,48.880 173.808,48.428 173.587 C 47.976 173.366,47.545 173.222,47.470 173.269 C 47.395 173.315,47.333 173.292,47.333 173.218 C 47.332 173.088,46.754 172.835,44.833 172.127 C 44.329 171.941,43.767 171.723,43.583 171.643 C 42.940 171.361,40.234 170.528,39.579 170.409 C 39.215 170.344,38.842 170.233,38.750 170.164 C 38.658 170.095,38.208 169.951,37.750 169.844 C 37.292 169.737,36.429 169.533,35.833 169.391 C 34.674 169.115,32.760 168.712,31.875 168.558 C 31.577 168.506,31.333 168.533,31.333 168.618 M20.458 171.951 C 20.665 171.991,21.002 171.991,21.208 171.951 C 21.415 171.911,21.246 171.879,20.833 171.879 C 20.421 171.879,20.252 171.911,20.458 171.951 M33.250 173.392 C 34.190 173.706,35.032 173.854,34.930 173.687 C 34.882 173.610,34.522 173.500,34.130 173.442 C 33.737 173.385,33.229 173.300,33.000 173.254 C 32.771 173.208,32.883 173.270,33.250 173.392 M35.167 173.838 C 35.167 173.906,35.388 173.995,35.658 174.034 C 35.928 174.074,36.117 174.054,36.077 173.990 C 35.974 173.823,35.167 173.688,35.167 173.838 M37.000 174.333 C 37.000 174.425,37.144 174.500,37.320 174.500 C 37.496 174.500,37.777 174.544,37.945 174.597 C 38.224 174.686,38.223 174.671,37.926 174.430 C 37.565 174.136,37.000 174.077,37.000 174.333 M72.441 196.781 C 72.378 196.844,72.553 197.102,72.830 197.355 C 73.107 197.608,73.333 197.889,73.333 197.981 C 73.333 198.072,73.402 198.189,73.485 198.241 C 73.760 198.411,73.572 197.845,73.199 197.382 C 72.998 197.132,72.833 196.869,72.833 196.797 C 72.833 196.636,72.596 196.626,72.441 196.781 M73.833 198.474 C 73.833 198.563,74.097 198.950,74.418 199.335 C 74.740 199.720,75.072 200.158,75.156 200.308 C 75.240 200.458,75.352 200.537,75.405 200.484 C 75.459 200.430,75.352 200.213,75.168 200.001 C 74.984 199.789,74.833 199.569,74.833 199.512 C 74.833 199.454,74.608 199.161,74.333 198.860 C 74.058 198.559,73.833 198.385,73.833 198.474 M75.505 200.718 C 75.502 200.793,75.762 201.197,76.083 201.617 C 76.404 202.037,76.667 202.296,76.667 202.192 C 76.667 202.088,76.520 201.833,76.340 201.626 C 76.160 201.419,75.900 201.100,75.762 200.917 C 75.624 200.733,75.508 200.644,75.505 200.718 M82.333 203.276 C 82.333 203.336,82.521 203.631,82.750 203.931 C 82.979 204.232,83.167 204.528,83.167 204.589 C 83.167 204.822,84.389 206.667,84.543 206.667 C 84.632 206.667,84.597 206.498,84.466 206.292 C 84.334 206.085,83.861 205.298,83.415 204.542 C 82.706 203.340,82.333 202.905,82.333 203.276 M97.232 214.417 C 97.333 214.737,97.469 215.000,97.536 215.000 C 97.602 215.000,97.613 215.112,97.560 215.250 C 97.508 215.387,97.536 215.500,97.623 215.500 C 97.837 215.500,97.772 214.854,97.501 214.292 C 97.188 213.642,97.015 213.723,97.232 214.417 M103.259 219.042 C 103.442 219.639,103.708 220.000,103.597 219.500 C 103.546 219.271,103.504 218.990,103.502 218.875 C 103.501 218.760,103.420 218.667,103.322 218.667 C 103.215 218.667,103.190 218.815,103.259 219.042 M66.372 240.333 C 66.372 240.654,66.406 240.785,66.448 240.625 C 66.490 240.465,66.490 240.202,66.448 240.042 C 66.406 239.881,66.372 240.012,66.372 240.333 " stroke="none" fill="#7c84fc" fill-rule="evenodd"/><path id="path2" d="M147.833 218.167 L 147.833 239.500 151.750 239.500 L 155.667 239.500 155.667 229.317 L 155.667 219.133 156.229 218.608 C 157.037 217.855,157.156 217.782,158.106 217.458 C 160.310 216.707,162.059 217.518,162.481 219.486 C 162.605 220.063,162.667 223.530,162.667 229.925 L 162.667 239.500 166.583 239.500 L 170.500 239.500 170.499 228.875 C 170.497 216.435,170.402 215.474,168.960 213.347 C 166.178 209.245,159.696 209.051,156.337 212.971 L 155.669 213.750 155.668 205.292 L 155.667 196.833 151.750 196.833 L 147.833 196.833 147.833 218.167 M362.833 200.103 C 362.696 200.138,361.608 200.279,360.417 200.415 C 359.225 200.551,357.744 200.751,357.125 200.859 L 356.000 201.055 356.000 220.278 L 356.000 239.500 359.917 239.500 L 363.833 239.500 363.833 233.833 L 363.833 228.167 366.375 228.158 C 377.239 228.122,382.333 223.602,382.333 214.000 C 382.333 207.252,379.972 203.421,374.417 201.157 C 372.319 200.301,364.744 199.612,362.833 200.103 M115.833 204.000 L 115.833 207.500 121.250 207.500 L 126.667 207.500 126.667 223.500 L 126.667 239.500 130.667 239.500 L 134.667 239.500 134.667 223.500 L 134.667 207.500 140.000 207.500 L 145.333 207.500 145.333 204.000 L 145.333 200.500 130.583 200.500 L 115.833 200.500 115.833 204.000 M200.833 220.000 L 200.833 239.500 204.582 239.500 L 208.331 239.500 208.374 226.888 L 208.417 214.276 208.750 214.930 C 208.933 215.289,209.121 215.621,209.167 215.667 C 209.213 215.713,209.438 216.125,209.667 216.583 C 209.896 217.042,210.121 217.454,210.167 217.500 C 210.246 217.580,210.749 218.487,211.322 219.583 C 211.466 219.858,211.621 220.121,211.667 220.167 C 211.713 220.212,211.938 220.625,212.167 221.083 C 212.396 221.541,212.739 222.178,212.930 222.500 C 213.301 223.123,214.013 224.410,214.959 226.167 C 215.280 226.762,215.597 227.325,215.664 227.417 C 215.784 227.581,216.320 228.552,217.459 230.667 C 217.780 231.262,218.097 231.825,218.164 231.917 C 218.284 232.081,218.820 233.052,219.959 235.167 C 220.280 235.762,220.597 236.325,220.664 236.417 C 220.730 236.508,221.070 237.108,221.418 237.750 C 221.766 238.392,222.132 239.048,222.232 239.208 C 222.397 239.473,222.782 239.500,226.373 239.500 L 230.333 239.500 230.333 220.000 L 230.333 200.500 226.584 200.500 L 222.835 200.500 222.793 213.125 C 222.766 221.121,222.693 225.628,222.594 225.417 C 222.508 225.233,222.115 224.533,221.719 223.861 C 221.324 223.189,221.000 222.570,221.000 222.486 C 221.000 222.402,220.912 222.333,220.806 222.333 C 220.699 222.333,220.657 222.288,220.713 222.232 C 220.769 222.176,220.631 221.840,220.407 221.485 C 220.183 221.130,220.000 220.804,220.000 220.761 C 220.000 220.717,219.766 220.284,219.480 219.799 C 218.976 218.944,218.495 218.081,217.460 216.167 C 217.187 215.662,216.828 215.025,216.663 214.750 C 216.498 214.475,216.183 213.912,215.962 213.500 C 215.155 211.991,214.282 210.412,214.164 210.250 C 214.097 210.158,213.780 209.596,213.460 209.000 C 212.603 207.404,211.972 206.272,211.834 206.083 C 211.767 205.992,211.392 205.317,211.000 204.583 C 210.313 203.297,209.998 202.724,209.147 201.210 L 208.750 200.503 204.792 200.501 L 200.833 200.500 200.833 220.000 M330.712 200.875 C 330.614 201.081,330.256 202.338,329.917 203.667 C 329.577 204.996,329.239 206.233,329.166 206.417 C 329.093 206.600,328.866 207.425,328.662 208.250 C 328.457 209.075,328.188 210.070,328.063 210.461 C 327.938 210.852,327.853 211.227,327.874 211.295 C 327.895 211.362,327.822 211.642,327.710 211.917 C 327.599 212.192,327.310 213.167,327.068 214.083 C 326.537 216.099,326.221 217.284,325.893 218.500 C 325.756 219.004,325.571 219.717,325.480 220.083 C 325.390 220.450,325.205 221.079,325.069 221.481 C 324.933 221.882,324.860 222.248,324.905 222.294 C 324.951 222.340,324.902 222.536,324.797 222.730 C 324.692 222.924,324.503 223.496,324.377 224.000 C 324.251 224.504,324.039 225.310,323.907 225.792 C 323.775 226.273,323.559 227.060,323.426 227.542 C 323.162 228.503,322.824 229.757,322.449 231.167 C 322.315 231.671,321.967 232.946,321.677 234.000 C 320.863 236.958,320.691 237.597,320.442 238.584 L 320.210 239.500 324.101 239.500 L 327.991 239.500 328.231 238.625 C 328.363 238.144,328.527 237.525,328.595 237.250 C 328.663 236.975,328.738 236.675,328.760 236.583 C 328.834 236.291,329.133 235.138,329.670 233.083 C 329.957 231.983,330.305 230.614,330.443 230.040 L 330.695 228.996 336.639 229.040 L 342.583 229.083 342.885 230.250 C 343.051 230.892,343.288 231.829,343.412 232.333 C 344.090 235.101,345.168 239.200,345.254 239.339 C 345.459 239.672,353.202 239.542,353.104 239.208 C 353.057 239.048,352.220 235.954,351.244 232.333 C 350.269 228.713,349.293 225.150,349.075 224.417 C 348.765 223.369,348.072 220.816,347.764 219.583 C 347.742 219.492,347.627 219.079,347.509 218.667 C 347.391 218.254,347.279 217.842,347.259 217.750 C 347.239 217.658,347.127 217.246,347.011 216.834 C 346.894 216.422,346.772 215.972,346.739 215.834 C 346.675 215.565,346.328 214.262,345.907 212.708 C 345.764 212.181,345.536 211.338,345.401 210.833 C 345.265 210.329,345.049 209.542,344.920 209.083 C 344.689 208.260,344.400 207.201,343.920 205.416 C 343.784 204.911,343.555 204.068,343.410 203.541 C 343.266 203.014,343.047 202.196,342.925 201.722 C 342.803 201.248,342.653 200.779,342.592 200.680 C 342.515 200.557,340.658 200.500,336.685 200.500 L 330.890 200.500 330.712 200.875 M386.667 220.000 L 386.667 239.500 390.667 239.500 L 394.667 239.500 394.667 220.000 L 394.667 200.500 390.667 200.500 L 386.667 200.500 386.667 220.000 M337.196 208.279 C 337.471 209.363,337.796 210.662,337.919 211.167 C 338.042 211.671,338.264 212.533,338.413 213.083 C 338.562 213.633,338.785 214.496,338.909 215.000 C 339.467 217.274,340.646 221.778,340.752 222.042 C 340.862 222.315,340.603 222.333,336.684 222.333 C 334.383 222.333,332.500 222.270,332.500 222.193 C 332.500 222.116,332.655 221.460,332.844 220.735 C 333.033 220.010,333.215 219.304,333.247 219.167 C 333.320 218.853,333.512 218.106,334.165 215.583 C 334.450 214.483,334.711 213.471,334.745 213.333 C 334.779 213.196,335.121 211.883,335.505 210.417 C 335.889 208.950,336.281 207.392,336.375 206.954 C 336.595 205.930,336.605 205.946,337.196 208.279 M370.417 206.924 C 373.433 207.990,374.417 209.791,374.417 214.250 L 374.417 217.083 373.866 218.209 C 372.487 221.029,369.258 222.198,364.607 221.561 L 363.833 221.455 363.833 214.071 L 363.833 206.687 364.458 206.611 C 365.911 206.436,369.581 206.629,370.417 206.924 M183.083 210.411 C 181.574 210.732,179.500 211.643,178.888 212.254 C 178.767 212.375,178.498 212.611,178.290 212.779 C 177.656 213.289,176.558 214.699,176.042 215.667 C 175.614 216.468,175.398 217.058,174.669 219.417 C 174.054 221.408,174.050 228.727,174.663 230.750 C 174.747 231.025,174.977 231.775,175.175 232.417 C 176.301 236.069,179.006 238.593,182.667 239.408 C 183.354 239.561,184.214 239.765,184.578 239.861 C 185.461 240.094,191.071 240.101,191.917 239.870 C 192.283 239.770,193.240 239.562,194.042 239.406 L 195.500 239.124 195.500 235.963 L 195.500 232.802 194.625 232.922 C 194.144 232.988,193.595 233.100,193.406 233.171 C 192.639 233.461,189.696 233.707,187.925 233.629 C 184.141 233.462,182.566 231.973,182.276 228.287 L 182.227 227.667 189.322 227.664 C 193.224 227.663,196.520 227.596,196.646 227.516 C 196.950 227.324,196.796 221.452,196.444 219.750 C 194.917 212.382,189.999 208.944,183.083 210.411 M243.583 210.365 C 243.033 210.452,242.512 210.593,242.425 210.679 C 242.338 210.764,242.156 210.833,242.022 210.833 C 239.960 210.833,236.326 214.772,235.389 218.022 C 233.155 225.767,235.019 234.990,239.408 237.903 C 242.024 239.640,248.912 240.709,252.167 239.883 C 252.579 239.778,253.573 239.564,254.375 239.408 L 255.833 239.124 255.833 235.960 L 255.833 232.795 255.042 232.907 C 254.606 232.968,254.025 233.086,253.750 233.170 C 252.282 233.617,248.230 233.816,246.711 233.515 C 244.161 233.011,242.861 231.346,242.631 228.286 L 242.583 227.656 249.667 227.660 C 253.563 227.663,256.854 227.599,256.981 227.517 C 257.677 227.071,256.977 219.555,255.990 216.867 C 254.088 211.690,249.709 209.395,243.583 210.365 M308.667 210.338 C 304.393 210.840,301.644 212.882,300.147 216.667 C 299.858 217.397,299.822 221.663,300.102 222.016 C 300.204 222.145,300.338 222.462,300.400 222.722 C 300.908 224.844,303.520 226.869,306.750 227.646 C 311.749 228.848,312.347 229.203,312.325 230.950 C 312.289 233.823,308.538 234.580,302.183 232.995 C 301.048 232.712,300.756 232.687,300.644 232.864 C 300.411 233.232,300.468 238.396,300.708 238.697 C 301.319 239.461,306.694 240.290,309.583 240.066 C 311.346 239.930,314.500 239.121,314.500 238.805 C 314.500 238.729,314.606 238.667,314.736 238.667 C 315.128 238.667,317.214 237.010,317.788 236.242 C 320.281 232.911,320.110 227.599,317.422 224.912 C 316.074 223.565,314.222 222.787,310.296 221.920 C 306.554 221.094,305.802 218.355,308.917 216.896 C 309.692 216.532,315.449 216.438,316.083 216.779 C 316.267 216.877,316.773 217.009,317.208 217.072 L 318.000 217.187 318.000 214.037 L 318.000 210.887 317.125 210.688 C 314.992 210.206,311.148 210.046,308.667 210.338 M258.333 210.890 C 258.333 211.105,258.447 211.649,258.585 212.099 C 258.724 212.548,258.878 213.179,258.927 213.500 C 258.976 213.821,259.059 214.196,259.111 214.333 C 259.164 214.471,259.305 215.033,259.425 215.583 C 259.627 216.503,259.826 217.353,260.423 219.833 C 260.544 220.338,260.768 221.275,260.920 221.917 C 261.072 222.558,261.306 223.533,261.440 224.083 C 261.573 224.633,261.787 225.533,261.914 226.083 C 262.132 227.029,262.421 228.248,262.923 230.333 C 263.044 230.838,263.268 231.775,263.420 232.417 C 263.572 233.058,263.806 234.033,263.940 234.583 C 264.281 235.984,264.652 237.596,264.870 238.625 L 265.056 239.500 269.350 239.500 C 273.296 239.500,273.651 239.476,273.730 239.208 C 273.778 239.048,273.971 238.242,274.159 237.417 C 274.348 236.592,274.578 235.654,274.671 235.333 C 274.764 235.012,274.945 234.262,275.073 233.667 C 275.348 232.397,277.429 223.981,277.649 223.250 C 277.732 222.975,277.976 221.981,278.192 221.042 C 278.542 219.515,278.833 218.861,278.833 219.603 C 278.833 219.852,279.798 223.996,280.167 225.333 C 280.255 225.654,280.591 227.042,280.913 228.417 C 281.234 229.792,281.566 231.142,281.650 231.417 C 281.733 231.692,281.849 232.217,281.908 232.583 C 281.966 232.950,282.079 233.438,282.159 233.667 C 282.240 233.896,282.592 235.302,282.943 236.792 L 283.580 239.500 287.857 239.500 L 292.133 239.500 292.429 238.208 C 292.592 237.498,292.742 236.842,292.762 236.750 C 292.820 236.482,293.475 233.751,294.002 231.583 C 294.269 230.483,294.511 229.396,294.540 229.167 C 294.568 228.938,294.641 228.672,294.701 228.576 C 294.761 228.481,294.851 228.106,294.900 227.743 C 294.950 227.380,295.111 226.633,295.259 226.083 C 295.674 224.533,295.800 224.030,296.172 222.417 C 296.362 221.592,296.588 220.654,296.674 220.333 C 296.760 220.012,296.984 219.075,297.171 218.250 C 297.878 215.132,298.010 214.568,298.167 214.000 C 298.255 213.679,298.447 212.892,298.594 212.250 C 298.740 211.608,298.897 210.952,298.941 210.792 C 299.017 210.520,298.772 210.500,295.450 210.500 L 291.877 210.500 291.775 211.042 C 291.718 211.340,291.557 212.071,291.417 212.667 C 291.277 213.262,291.046 214.275,290.903 214.917 C 290.761 215.558,290.537 216.552,290.405 217.125 C 290.274 217.698,290.059 218.635,289.928 219.208 C 289.797 219.781,289.573 220.775,289.430 221.417 C 289.288 222.058,289.057 223.071,288.917 223.667 C 288.596 225.031,288.208 226.777,287.924 228.134 C 287.691 229.247,287.555 229.529,287.434 229.149 C 287.332 228.828,286.584 225.729,286.170 223.917 C 285.982 223.092,285.757 222.117,285.669 221.750 C 285.111 219.412,284.444 216.605,284.244 215.750 C 284.116 215.200,283.851 214.075,283.656 213.250 C 283.461 212.425,283.274 211.613,283.241 211.445 C 283.040 210.429,283.378 210.500,278.757 210.500 L 274.537 210.500 274.425 211.125 C 274.364 211.469,274.243 211.975,274.157 212.250 C 274.071 212.525,273.737 213.875,273.414 215.250 C 273.091 216.625,272.785 217.900,272.735 218.083 C 272.684 218.267,272.541 218.867,272.416 219.417 C 272.291 219.967,272.078 220.867,271.942 221.417 C 271.622 222.715,271.241 224.312,270.928 225.667 C 270.292 228.414,269.864 229.896,269.772 229.667 C 269.680 229.437,269.507 228.678,268.919 225.917 C 268.721 224.987,268.446 223.706,267.918 221.250 C 267.799 220.700,267.461 219.162,267.167 217.833 C 266.550 215.054,266.310 213.932,265.943 212.121 C 265.799 211.408,265.636 210.752,265.581 210.662 C 265.521 210.565,264.047 210.500,261.907 210.500 L 258.333 210.500 258.333 210.890 M187.336 215.809 C 188.550 216.456,189.200 218.081,189.427 221.042 L 189.539 222.500 185.853 222.500 C 182.254 222.500,182.167 222.492,182.167 222.160 C 182.167 218.843,183.319 215.888,184.718 215.616 C 185.661 215.433,186.785 215.516,187.336 215.809 M248.065 216.058 C 249.054 216.812,249.833 219.322,249.833 221.750 L 249.833 222.500 246.145 222.500 L 242.457 222.500 242.573 221.125 C 242.825 218.151,243.530 216.364,244.684 215.777 C 245.584 215.319,247.281 215.460,248.065 216.058 " stroke="none" fill="#0c0c24" fill-rule="evenodd"/><path id="path3" d="" stroke="none" fill="#0c0c2c" fill-rule="evenodd"/><path id="path4" d="" stroke="none" fill="#4c7858" fill-rule="evenodd"/><path id="path5" d="" stroke="none" fill="#500c58" fill-rule="evenodd"/><path id="path6" d="" stroke="none" fill="#100c24" fill-rule="evenodd"/><path id="path7" d="" stroke="none" fill="#100c24" fill-rule="evenodd"/><path id="path8" d="" stroke="none" fill="#100c24" fill-rule="evenodd"/></g></svg>