<svg width="16" height="16" viewBox="0 0 16 16" fill="none" xmlns="http://www.w3.org/2000/svg">
<rect width="16" height="16" rx="4" fill="#2A2A2A"/>
<path d="M10.3001 8.27849C10.315 8.18134 10.33 8.09068 10.33 7.98705C10.33 7.04793 9.41866 6.29663 8.33546 6.29663H6.4626C5.13288 6.29663 3.94514 6.82772 3.16076 7.65673C3.10846 7.70855 3.01138 7.68264 3.01138 7.61139V6.65284C3.01138 5.73963 3.86286 5.00129 4.91618 5.00129H8.71645C9.964 5.00129 11.0172 5.85621 11.0471 6.93781C11.0621 7.47538 10.8306 7.96762 10.4422 8.33031C10.3899 8.38213 10.2851 8.34325 10.3001 8.27201V8.27849Z" fill="#F2F1EE"/>
<path d="M11.7569 7.72151C11.8316 7.5013 11.8689 7.26165 11.8689 7.02201C11.8839 5.51942 10.4346 4.28885 8.7015 4.28885H4.90871C4.23637 4.28885 3.61643 4.50259 3.13832 4.8588C3.08603 4.89766 3.00391 4.85881 3.00391 4.807V4.65155C3.00391 3.73833 3.85538 3 4.90871 3H9.08997C10.9874 3 12.5711 4.30829 12.5935 5.95985C12.601 6.64638 12.3471 7.28108 11.9063 7.78626C11.854 7.85102 11.7345 7.79923 11.7644 7.72151H11.7569Z" fill="#F2F1EE"/>
<path d="M5.70667 7.72151C5.69173 7.81866 5.67676 7.90932 5.67676 8.01294C5.67676 8.95206 6.46796 9.70337 7.55117 9.70337H9.54353C10.8733 9.70337 12.0612 9.17228 12.8456 8.34326C12.8978 8.29145 12.9949 8.31736 12.9949 8.3886V9.34714C12.9949 10.2604 12.1433 10.9987 11.0899 10.9987H7.17017C5.92262 10.9987 4.98951 10.1438 4.95963 9.06216C4.94469 8.5246 5.17632 8.03237 5.56478 7.66968C5.61707 7.61787 5.72161 7.65673 5.70667 7.72797V7.72151Z" fill="#F2F1EE"/>
<path d="M4.24253 8.27849C4.16783 8.4987 4.13055 8.73835 4.13055 8.97799C4.11561 10.4806 5.44455 11.7111 7.17767 11.7111H11.09C11.7623 11.7111 12.3824 11.4974 12.8605 11.1412C12.9128 11.1023 12.995 11.1412 12.995 11.193V11.3484C12.995 12.2616 12.1433 13 11.09 13H6.7892C4.89173 13 3.42817 11.6917 3.40576 10.0402C3.39829 9.35362 3.65241 8.7189 4.09316 8.21372C4.14545 8.14896 4.26494 8.20077 4.23505 8.27849H4.24253Z" fill="#F2F1EE"/>
</svg>
